<svg width="300" height="134" viewBox="0 0 300 134" fill="none" xmlns="http://www.w3.org/2000/svg">
<line opacity="0.3" y1="66.3935" x2="300" y2="66.3934" stroke="#747681" stroke-width="0.983607"/>
<path d="M22.623 113.606C22.623 115.508 21.0818 117.049 19.1805 117.049C17.2792 117.049 15.7379 115.508 15.7379 113.606L15.7379 100.328L22.623 100.328L22.623 113.606Z" fill="#9FA324"/>
<path d="M22.623 99.344L15.7378 99.344L15.7378 83.6063L22.623 83.6063L22.623 99.344Z" fill="#9FA324"/>
<path d="M15.7375 20.1638C15.7375 18.2625 17.2789 16.7212 19.1802 16.7212C21.0815 16.7212 22.6228 18.2625 22.6228 20.1638V33.4425H15.7375V20.1638Z" fill="#B8E716"/>
<path d="M15.7375 34.426H22.6228V50.1637H15.7375V34.426Z" fill="#B8E716"/>
<path d="M15.7375 51.1475H22.6228V65.9016H15.7375V51.1475Z" fill="#B8E716"/>
<path d="M15.7375 66.885H22.6228V82.6227H15.7375V66.885Z" fill="#B8E716"/>
<path d="M55.0811 96.8845C55.0811 98.7858 53.5397 100.327 51.6384 100.327C49.7371 100.327 48.1958 98.7858 48.1958 96.8845L48.1958 83.6058L55.0811 83.6058L55.0811 96.8845Z" fill="#9FA324"/>
<path d="M48.1963 36.885C48.1963 34.9837 49.7376 33.4424 51.6389 33.4424C53.5402 33.4424 55.0815 34.9837 55.0815 36.885V50.1637H48.1963V36.885Z" fill="#B8E716"/>
<path d="M48.1963 51.1472H55.0815V65.9013H48.1963V51.1472Z" fill="#B8E716"/>
<path d="M48.1963 66.885H55.0815V82.6227H48.1963V66.885Z" fill="#B8E716"/>
<path d="M87.54 121.968C87.54 123.869 85.9987 125.41 84.0974 125.41C82.1961 125.41 80.6548 123.869 80.6548 121.968L80.6548 108.689L87.54 108.689L87.54 121.968Z" fill="#9FA324"/>
<path d="M87.54 107.705L80.6548 107.705L80.6548 91.9676L87.54 91.9676L87.54 107.705Z" fill="#9FA324"/>
<path d="M87.54 90.9844L80.6548 90.9844L80.6548 75.2467L87.54 75.2467L87.54 90.9844Z" fill="#9FA324"/>
<path d="M80.6553 11.8035C80.6553 9.90215 82.1966 8.36084 84.0979 8.36084C85.9992 8.36084 87.5405 9.90215 87.5405 11.8035V25.0822H80.6553V11.8035Z" fill="#B8E716"/>
<path d="M80.6553 26.0659H87.5405V41.8036H80.6553V26.0659Z" fill="#B8E716"/>
<path d="M80.6553 42.7871H87.5405V57.5412H80.6553V42.7871Z" fill="#B8E716"/>
<path d="M80.6553 58.5249H87.5405V74.2626H80.6553V58.5249Z" fill="#B8E716"/>
<path d="M120 80.1638C120 82.0651 118.458 83.6064 116.557 83.6064C114.656 83.6064 113.115 82.0651 113.115 80.1638L113.115 66.8851L120 66.8851L120 80.1638Z" fill="#9FA324"/>
<path d="M120 65.9016L113.115 65.9016L113.115 50.1639L120 50.1639L120 65.9016Z" fill="#9FA324"/>
<path d="M152.459 96.1472C152.459 98.0485 150.918 99.5898 149.016 99.5898C147.115 99.5898 145.574 98.0485 145.574 96.1472L145.574 82.8685L152.459 82.8685L152.459 96.1472Z" fill="#9FA324"/>
<path d="M152.459 81.8848L145.574 81.8848L145.574 66.1471L152.459 66.1471L152.459 81.8848Z" fill="#9FA324"/>
<path d="M145.574 52.1306C145.574 50.2293 147.116 48.688 149.017 48.688C150.918 48.688 152.459 50.2293 152.459 52.1306V65.4093H145.574V52.1306Z" fill="#B8E716"/>
<path d="M184.918 97.3767C184.918 99.278 183.377 100.819 181.475 100.819C179.574 100.819 178.033 99.278 178.033 97.3767L178.033 84.098L184.918 84.098L184.918 97.3767Z" fill="#9FA324"/>
<path d="M184.918 83.1145L178.033 83.1145L178.033 67.3768L184.918 67.3768L184.918 83.1145Z" fill="#9FA324"/>
<path d="M178.032 36.3933C178.032 34.492 179.574 32.9507 181.475 32.9507C183.376 32.9507 184.917 34.492 184.917 36.3933V49.672H178.032V36.3933Z" fill="#B8E716"/>
<path d="M178.032 50.6555H184.917V66.3932H178.032V50.6555Z" fill="#B8E716"/>
<path d="M217.377 130.328C217.377 132.229 215.836 133.771 213.934 133.771C212.033 133.771 210.492 132.229 210.492 130.328L210.492 117.049L217.377 117.049L217.377 130.328Z" fill="#9FA324"/>
<path d="M217.377 116.066L210.492 116.066L210.492 100.328L217.377 100.328L217.377 116.066Z" fill="#9FA324"/>
<path d="M217.377 82.623L210.492 82.623L210.492 66.8854L217.377 66.8854L217.377 82.623Z" fill="#9FA324"/>
<path d="M217.377 99.3447L210.492 99.3447L210.492 83.6071L217.377 83.6071L217.377 99.3447Z" fill="#9FA324"/>
<path d="M210.491 3.44262C210.491 1.54132 212.033 0 213.934 0C215.835 0 217.376 1.54131 217.376 3.44262V16.7213H210.491V3.44262Z" fill="#B8E716"/>
<path d="M210.491 17.7048H217.376V33.4425H210.491V17.7048Z" fill="#B8E716"/>
<path d="M210.491 34.4263H217.376V49.1804H210.491V34.4263Z" fill="#B8E716"/>
<path d="M210.491 50.1638H217.376V65.9015H210.491V50.1638Z" fill="#B8E716"/>
<path d="M249.835 97.377C249.835 99.2783 248.294 100.82 246.393 100.82C244.492 100.82 242.95 99.2783 242.95 97.377L242.95 84.0983L249.835 84.0983L249.835 97.377Z" fill="#9FA324"/>
<path d="M249.836 83.1147L242.95 83.1147L242.95 67.377L249.836 67.377L249.836 83.1147Z" fill="#9FA324"/>
<path d="M249.836 66.3933L242.95 66.3933L242.95 50.6556L249.836 50.6556L249.836 66.3933Z" fill="#9FA324"/>
<path d="M242.95 36.3933C242.95 34.492 244.492 32.9507 246.393 32.9507C248.294 32.9507 249.835 34.492 249.835 36.3933V49.672H242.95V36.3933Z" fill="#B8E716"/>
<path d="M275.41 95.9021C275.41 97.8034 273.869 99.3447 271.968 99.3447C270.066 99.3447 268.525 97.8034 268.525 95.9021L268.525 82.6234L275.41 82.6234L275.41 95.9021Z" fill="#9FA324"/>
<path d="M268.525 35.9016C268.525 34.0003 270.066 32.459 271.967 32.459C273.869 32.459 275.41 34.0003 275.41 35.9016V49.1803H268.525V35.9016Z" fill="#B8E716"/>
<path d="M268.525 50.1638H275.41V64.9179H268.525V50.1638Z" fill="#B8E716"/>
<path d="M268.525 65.9016H275.41V81.6393H268.525V65.9016Z" fill="#B8E716"/>
</svg>
