<svg width="44" height="37" viewBox="0 0 44 37" fill="none" xmlns="http://www.w3.org/2000/svg">
<g opacity="0.3">
<ellipse cx="20.9129" cy="16.4214" rx="16.087" ry="16.1184" fill="#9FA324"/>
<ellipse cx="2.41304" cy="2.72074" rx="2.41304" ry="2.41776" fill="#9FA324"/>
</g>
<path d="M33.6568 19.1144C32.6154 20.1558 30.9269 20.1558 29.8855 19.1144C28.8441 18.073 28.8441 16.3846 29.8855 15.3432C30.9269 14.3018 32.6154 14.3018 33.6568 15.3432C34.6982 16.3846 34.6982 18.073 33.6568 19.1144Z" stroke="#9FA324" stroke-width="1.5"/>
<path d="M24.5486 11.2522C25.6645 10.1363 27.2057 9.55719 28.7678 9.66686L34.0536 10.038C36.6928 10.2232 38.7768 12.3072 38.9621 14.9465L39.3332 20.2323C39.4429 21.7944 38.8638 23.3356 37.7479 24.4515L28.9941 33.2053C26.883 35.3164 23.4831 35.3394 21.4003 33.2566L15.7435 27.5997C13.6607 25.517 13.6837 22.1171 15.7948 20.006L24.5486 11.2522Z" stroke="#9FA324" stroke-width="1.5" stroke-linejoin="round"/>
</svg>
