<svg width="171" height="154" viewBox="0 0 171 154" fill="none" xmlns="http://www.w3.org/2000/svg">
<path fill-rule="evenodd" clip-rule="evenodd" d="M89.6455 139.025L89.6455 153.574C98.5812 153.574 107.429 151.86 115.685 148.529C123.94 145.198 131.442 140.316 137.76 134.162C144.079 128.007 149.091 120.7 152.51 112.659C155.93 104.618 157.69 95.999 157.69 87.295H142.753C142.753 115.865 118.976 139.025 89.6455 139.025Z" fill="#F5F5F5"/>
<path fill-rule="evenodd" clip-rule="evenodd" d="M164.011 57.291C168.056 66.8034 170.138 76.9987 170.138 87.2948H142.753C142.753 87.2948 142.753 87.2948 142.753 87.2947C142.753 58.7251 118.976 35.5648 89.6462 35.5645L89.6462 8.89112C100.216 8.89112 110.683 10.9191 120.449 14.8592C130.215 18.7994 139.088 24.5746 146.562 31.855C154.037 39.1355 159.965 47.7787 164.011 57.291Z" fill="#9FA324"/>
<path fill-rule="evenodd" clip-rule="evenodd" d="M26.276 25.5681C9.46911 41.939 0.0271017 64.1428 0.0270996 87.2949H36.5388C36.5388 87.2948 36.5388 87.2948 36.5388 87.2947C36.5388 58.7249 60.3159 35.5645 89.6464 35.5645V0C65.8779 0 43.0829 9.19711 26.276 25.5681Z" fill="#FDCF24"/>
<mask id="mask0_2_1850" style="mask-type:alpha" maskUnits="userSpaceOnUse" x="0" y="0" width="171" height="154">
<path fill-rule="evenodd" clip-rule="evenodd" d="M89.6455 139.025L89.6455 153.574C98.5812 153.574 107.429 151.86 115.685 148.529C123.94 145.198 131.442 140.316 137.76 134.162C144.079 128.007 149.091 120.7 152.51 112.659C155.93 104.618 157.69 95.999 157.69 87.295H142.753C142.753 115.865 118.976 139.025 89.6455 139.025Z" fill="#F6F6F6"/>
<path fill-rule="evenodd" clip-rule="evenodd" d="M164.011 57.291C168.056 66.8034 170.138 76.9987 170.138 87.2948H142.753C142.753 87.2948 142.753 87.2948 142.753 87.2947C142.753 58.7251 118.977 35.5648 89.6462 35.5644L89.6462 8.89111C100.217 8.89111 110.683 10.9191 120.449 14.8592C130.215 18.7994 139.088 24.5746 146.562 31.855C154.037 39.1355 159.966 47.7786 164.011 57.291Z" fill="#52D6B7"/>
<path fill-rule="evenodd" clip-rule="evenodd" d="M26.276 25.5681C9.46911 41.939 0.0271017 64.1428 0.0270996 87.2949H36.5388C36.5388 87.2948 36.5388 87.2948 36.5388 87.2947C36.5388 58.7249 60.3159 35.5645 89.6464 35.5645V0C65.8779 0 43.0829 9.19711 26.276 25.5681Z" fill="#84E8F4"/>
</mask>
<g mask="url(#mask0_2_1850)">
<ellipse opacity="0.35" cx="151.882" cy="28.2899" rx="29.0433" ry="28.29" fill="white"/>
<ellipse opacity="0.35" cx="176.777" cy="89.7197" rx="29.0433" ry="28.29" fill="white"/>
<ellipse opacity="0.35" cx="32.3897" cy="99.419" rx="29.0433" ry="28.29" fill="white"/>
<ellipse opacity="0.35" cx="50.6453" cy="-3.8147e-05" rx="29.0433" ry="28.29" fill="white"/>
</g>
<g filter="url(#filter0_d_2_1850)">
<ellipse cx="89.6465" cy="87.2947" rx="53.1077" ry="51.7303" fill="white"/>
</g>
<path d="M89.6473 75.9785C87.3497 75.9785 85.1036 76.6422 83.1931 77.8856C81.2827 79.129 79.7936 80.8963 78.9143 82.9641C78.0351 85.0318 77.805 87.3071 78.2533 89.5022C78.7015 91.6972 79.808 93.7136 81.4327 95.2961C83.0574 96.8787 85.1274 97.9565 87.3809 98.3931C89.6345 98.8297 91.9703 98.6056 94.0931 97.7491C96.2159 96.8927 98.0303 95.4423 99.3068 93.5814C100.583 91.7204 101.265 89.5326 101.265 87.2945H89.6473V75.9785Z" fill="#9FA324"/>
<defs>
<filter id="filter0_d_2_1850" x="22.8166" y="21.8422" width="133.66" height="130.905" filterUnits="userSpaceOnUse" color-interpolation-filters="sRGB">
<feFlood flood-opacity="0" result="BackgroundImageFix"/>
<feColorMatrix in="SourceAlpha" type="matrix" values="0 0 0 0 0 0 0 0 0 0 0 0 0 0 0 0 0 0 127 0" result="hardAlpha"/>
<feOffset/>
<feGaussianBlur stdDeviation="6.86113"/>
<feColorMatrix type="matrix" values="0 0 0 0 0 0 0 0 0 0 0 0 0 0 0 0 0 0 0.1 0"/>
<feBlend mode="normal" in2="BackgroundImageFix" result="effect1_dropShadow_2_1850"/>
<feBlend mode="normal" in="SourceGraphic" in2="effect1_dropShadow_2_1850" result="shape"/>
</filter>
</defs>
</svg>
