<svg width="606" height="175" viewBox="0 0 606 175" fill="none" xmlns="http://www.w3.org/2000/svg">
<path d="M2.29272 4.63232C2.29272 2.42318 4.08359 0.632324 6.29272 0.632324H13.5481C15.0313 0.632324 16.3927 1.45303 17.0853 2.76463L18.8203 6.05049C21.0721 10.3151 27.1801 10.3151 29.4318 6.05049L31.1668 2.76463C31.8594 1.45303 33.2208 0.632324 34.704 0.632324H42.2927C44.5019 0.632324 46.2927 2.42319 46.2927 4.63232V170.632C46.2927 172.841 44.5019 174.632 42.2927 174.632H6.29272C4.08358 174.632 2.29272 172.841 2.29272 170.632V4.63232Z" fill="#EAFBF7"/>
<line x1="24.5" y1="14.6406" x2="24.5" y2="173.943" stroke="white" stroke-linecap="round"/>
<path d="M95.2927 4.63232C95.2927 2.42318 97.0836 0.632324 99.2927 0.632324H106.548C108.031 0.632324 109.393 1.45303 110.085 2.76463L111.82 6.05049C114.072 10.3151 120.18 10.3151 122.432 6.05049L124.167 2.76463C124.859 1.45303 126.221 0.632324 127.704 0.632324H135.293C137.502 0.632324 139.293 2.42319 139.293 4.63232V170.632C139.293 172.841 137.502 174.632 135.293 174.632H99.2927C97.0836 174.632 95.2927 172.841 95.2927 170.632V4.63232Z" fill="#EAFBF7"/>
<line x1="117.5" y1="14.6406" x2="117.5" y2="173.943" stroke="white" stroke-linecap="round"/>
<path d="M188.293 4.63232C188.293 2.42318 190.084 0.632324 192.293 0.632324H199.548C201.031 0.632324 202.393 1.45303 203.085 2.76463L204.82 6.05049C207.072 10.3151 213.18 10.3151 215.432 6.05049L217.167 2.76463C217.859 1.45303 219.221 0.632324 220.704 0.632324H228.293C230.502 0.632324 232.293 2.42319 232.293 4.63232V170.632C232.293 172.841 230.502 174.632 228.293 174.632H192.293C190.084 174.632 188.293 172.841 188.293 170.632V4.63232Z" fill="#EAFBF7"/>
<line x1="210.5" y1="14.6406" x2="210.5" y2="173.943" stroke="white" stroke-linecap="round"/>
<path d="M281.293 4.63232C281.293 2.42318 283.084 0.632324 285.293 0.632324H292.548C294.031 0.632324 295.393 1.45303 296.085 2.76463L297.82 6.05049C300.072 10.3151 306.18 10.3151 308.432 6.05049L310.167 2.76463C310.859 1.45303 312.221 0.632324 313.704 0.632324H321.293C323.502 0.632324 325.293 2.42319 325.293 4.63232V170.632C325.293 172.841 323.502 174.632 321.293 174.632H285.293C283.084 174.632 281.293 172.841 281.293 170.632V4.63232Z" fill="url(#paint0_linear_9092_128)"/>
<line x1="303.5" y1="14.6406" x2="303.5" y2="173.943" stroke="white" stroke-linecap="round"/>
<path d="M374.293 4.63232C374.293 2.42318 376.084 0.632324 378.293 0.632324H385.548C387.031 0.632324 388.393 1.45303 389.085 2.76463L390.82 6.05049C393.072 10.3151 399.18 10.3151 401.432 6.05049L403.167 2.76463C403.859 1.45303 405.221 0.632324 406.704 0.632324H414.293C416.502 0.632324 418.293 2.42319 418.293 4.63232V170.632C418.293 172.841 416.502 174.632 414.293 174.632H378.293C376.084 174.632 374.293 172.841 374.293 170.632V4.63232Z" fill="#EAFBF7"/>
<line x1="396.5" y1="14.6406" x2="396.5" y2="173.943" stroke="white" stroke-linecap="round"/>
<path d="M467.293 4.63232C467.293 2.42318 469.084 0.632324 471.293 0.632324H478.548C480.031 0.632324 481.393 1.45303 482.085 2.76463L483.82 6.05049C486.072 10.3151 492.18 10.3151 494.432 6.05049L496.167 2.76463C496.859 1.45303 498.221 0.632324 499.704 0.632324H507.293C509.502 0.632324 511.293 2.42319 511.293 4.63232V170.632C511.293 172.841 509.502 174.632 507.293 174.632H471.293C469.084 174.632 467.293 172.841 467.293 170.632V4.63232Z" fill="#EAFBF7"/>
<line x1="489.5" y1="14.6406" x2="489.5" y2="173.943" stroke="white" stroke-linecap="round"/>
<path d="M560.293 4.63232C560.293 2.42318 562.084 0.632324 564.293 0.632324H571.548C573.032 0.632324 574.393 1.45303 575.086 2.76463L576.821 6.05049C579.072 10.3151 585.18 10.3151 587.432 6.05049L589.167 2.76463C589.86 1.45303 591.221 0.632324 592.704 0.632324H600.293C602.502 0.632324 604.293 2.42319 604.293 4.63232V170.632C604.293 172.841 602.502 174.632 600.293 174.632H564.293C562.084 174.632 560.293 172.841 560.293 170.632V4.63232Z" fill="#EAFBF7"/>
<line x1="582.5" y1="14.6406" x2="582.5" y2="173.943" stroke="white" stroke-linecap="round"/>
<path d="M604 127.612L584.59 134.567C579.187 136.503 573.341 136.848 567.747 135.561L553.646 132.318C550.746 131.651 547.962 130.556 545.385 129.07L522.231 115.719L519.089 114.169C505.184 107.312 488.346 112.179 480.243 125.397L471.279 140.022C468.389 144.736 464.253 148.56 459.327 151.071L451.185 155.221C444.035 158.866 435.581 158.906 428.397 155.329V155.329C418.676 150.489 406.95 152.385 399.251 160.044L394.568 164.702C388.548 170.691 380.227 173.775 371.758 173.157V173.157C362.705 172.496 354.469 167.68 349.455 160.114L337.891 142.669C333.108 135.452 325.44 130.654 316.858 129.507L313.081 129.002C306.346 128.103 300.116 124.943 295.41 120.041L286.308 110.558C279.61 103.579 269.957 100.258 260.383 101.639L256.248 102.235C250.821 103.018 245.282 102.298 240.235 100.153L235.106 97.9741C226.196 94.1879 216.006 94.9347 207.743 99.9794L207.079 100.384C198.434 105.662 187.71 106.221 178.563 101.871L174.239 99.815C169.017 97.3312 163.116 96.6566 157.467 97.8977V97.8977C146.213 100.37 134.671 95.1529 129.093 85.0706L122.849 73.7871C116.318 61.9837 102.081 56.8075 89.4942 61.6606V61.6606C85.7253 63.1137 81.6785 63.7032 77.6517 63.3856L74.7669 63.158C63.6715 62.2829 53.0035 67.6223 47.054 77.0285L34.4069 97.0235C30.9249 102.529 25.7458 106.751 19.6521 109.052L1.99994 115.719" stroke="#B8E716" stroke-width="3" stroke-linecap="round" stroke-linejoin="round"/>
<path d="M2 97.2251L29.0417 88.9611L51.2099 81.0186C54.8124 79.7279 58.7096 79.4978 62.4389 80.3556L80.8534 84.5913C82.7863 85.0359 84.6424 85.7656 86.3607 86.7564L110.811 100.855L122.134 106.439C131.403 111.01 142.629 107.765 148.031 98.9536L163.236 74.1488C165.162 71.0062 167.92 68.457 171.204 66.7829L184.246 60.1342C189.893 57.2555 196.57 57.224 202.244 60.0491L216.869 67.3315C219.529 68.6559 222.45 69.371 225.421 69.4249L250.055 69.8717C252.66 69.919 255.249 69.4569 257.676 68.5115L291.137 55.4797C298.539 52.5967 306.946 54.3681 312.556 59.993L315 62.4433L328.5 82.4433L339.648 98.2365C340.215 99.04 340.841 99.8005 341.52 100.512L357.999 117.778C363.37 123.404 372.182 123.906 378.156 118.924V118.924C382.413 115.374 388.299 114.505 393.401 116.673L402.667 120.61C408.608 123.134 415.401 122.637 420.91 119.273L430.581 113.37C436.344 109.851 443.494 109.478 449.592 112.378L460.671 117.648C464.683 119.555 469.215 120.073 473.553 119.12L479.976 117.709C488.619 115.81 497.483 119.817 501.767 127.56L513.151 148.133C517.986 156.872 528.527 160.704 537.846 157.111L545.034 154.34C547.824 153.264 550.82 152.828 553.802 153.063L564.288 153.89C571.685 154.473 578.797 150.914 582.763 144.643L604 111.068" stroke="#DEE33E" stroke-width="3" stroke-linecap="round" stroke-linejoin="round"/>
<line x1="418" y1="171.5" x2="467" y2="171.5" stroke="black"/>
<g filter="url(#filter0_d_9092_128)">
<path d="M309 54.4951C309 57.8121 306.314 60.501 303 60.501C299.686 60.501 297 57.8121 297 54.4951C297 51.1782 299.686 48.4893 303 48.4893C306.314 48.4893 309 51.1782 309 54.4951Z" fill="white"/>
<path d="M308 54.4951C308 57.2607 305.761 59.501 303 59.501C300.239 59.501 298 57.2607 298 54.4951C298 51.7295 300.239 49.4893 303 49.4893C305.761 49.4893 308 51.7295 308 54.4951Z" stroke="#DEE33E" stroke-width="2"/>
</g>
<defs>
<filter id="filter0_d_9092_128" x="293" y="46.4893" width="20" height="20.0117" filterUnits="userSpaceOnUse" color-interpolation-filters="sRGB">
<feFlood flood-opacity="0" result="BackgroundImageFix"/>
<feColorMatrix in="SourceAlpha" type="matrix" values="0 0 0 0 0 0 0 0 0 0 0 0 0 0 0 0 0 0 127 0" result="hardAlpha"/>
<feOffset dy="2"/>
<feGaussianBlur stdDeviation="2"/>
<feComposite in2="hardAlpha" operator="out"/>
<feColorMatrix type="matrix" values="0 0 0 0 0.101961 0 0 0 0 0.12549 0 0 0 0 0.172549 0 0 0 0.05 0"/>
<feBlend mode="normal" in2="BackgroundImageFix" result="effect1_dropShadow_9092_128"/>
<feBlend mode="normal" in="SourceGraphic" in2="effect1_dropShadow_9092_128" result="shape"/>
</filter>
<linearGradient id="paint0_linear_9092_128" x1="303.293" y1="0.632324" x2="303.293" y2="174.632" gradientUnits="userSpaceOnUse">
<stop stop-color="#B8E716"/>
<stop offset="1" stop-color="#B8E716" stop-opacity="0"/>
</linearGradient>
</defs>
</svg>
