<svg width="44" height="37" viewBox="0 0 44 37" fill="none" xmlns="http://www.w3.org/2000/svg">
<g opacity="0.3">
<ellipse cx="20.9129" cy="16.4214" rx="16.087" ry="16.1184" fill="#9FA324"/>
<ellipse cx="2.41304" cy="2.72074" rx="2.41304" ry="2.41776" fill="#9FA324"/>
</g>
<path d="M20.0001 10.3333H36.0001C38.9456 10.3333 41.3334 12.7211 41.3334 15.6666V22.3333C41.3334 25.2788 38.9456 27.6666 36.0001 27.6666H25.3334C22.3879 27.6666 20.0001 25.2788 20.0001 22.3333V10.3333ZM20.0001 10.3333C20.0001 8.86053 18.8062 7.66663 17.3334 7.66663H14.6667" stroke="#9FA324" stroke-width="2" stroke-linecap="round" stroke-linejoin="round"/>
<path d="M26.6667 32.3334C26.6667 33.4379 25.7713 34.3334 24.6667 34.3334C23.5622 34.3334 22.6667 33.4379 22.6667 32.3334C22.6667 31.2288 23.5622 30.3334 24.6667 30.3334C25.7713 30.3334 26.6667 31.2288 26.6667 32.3334Z" stroke="#9FA324" stroke-width="2"/>
<path d="M38.6667 32.3334C38.6667 33.4379 37.7713 34.3334 36.6667 34.3334C35.5622 34.3334 34.6667 33.4379 34.6667 32.3334C34.6667 31.2288 35.5622 30.3334 36.6667 30.3334C37.7713 30.3334 38.6667 31.2288 38.6667 32.3334Z" stroke="#9FA324" stroke-width="2"/>
<path d="M26.6667 21C29.8083 22.7871 31.5302 22.7684 34.6667 21" stroke="#9FA324" stroke-width="2" stroke-linecap="round" stroke-linejoin="round"/>
</svg>
